# xmcd CD database file
#
# Track frame offsets:
#	183
#	75040
#	128903
#	155200
#	271438
#
# Disc length: 4678 seconds
#
# Revision: 0
# Processed by: cddbd v1.4PL0 Copyright (c) Steve Scherf et al.
# Submitted via: CDex 1.50Beta6
#
DISCID=38124405
DTITLE=Fela Anikulapo Kuti - Vol.3
DYEAR=1990
DGENRE=Rhythmic Soul
TTITLE0=Army  arrangement
TTITLE1=Cross examination
TTITLE2=Governement chicken boy
TTITLE3=Teacher don't teach me no sense
TTITLE4=Look and laugh
EXTD=YEAR: 1990
EXTT0=
EXTT1=
EXTT2=
EXTT3=
EXTT4=
PLAYORDER=
